<?xml version="1.0" standalone="no"?>
<!DOCTYPE svg PUBLIC "-//W3C//DTD SVG 20010904//EN"
 "http://www.w3.org/TR/2001/REC-SVG-20010904/DTD/svg10.dtd">
<svg version="1.0" xmlns="http://www.w3.org/2000/svg"
 width="400.000000pt" height="400.000000pt" viewBox="0 0 400.000000 400.000000"
 preserveAspectRatio="xMidYMid meet">

<g transform="translate(0.000000,400.000000) scale(0.100000,-0.100000)"
fill="#000000" stroke="none">
<path d="M3150 3815 c0 -62 1 -65 25 -65 31 0 44 25 38 70 -7 43 -19 60 -44
60 -17 0 -19 -8 -19 -65z m42 30 c0 -5 -5 -11 -11 -13 -6 -2 -11 4 -11 13 0 9
5 15 11 13 6 -2 11 -8 11 -13z m6 -58 c2 -10 -3 -17 -12 -17 -10 0 -16 9 -16
21 0 24 23 21 28 -4z"/>
<path d="M3242 3868 c-17 -17 -15 -93 3 -108 19 -16 45 -6 44 17 0 11 -3 13
-6 6 -8 -20 -31 -15 -38 8 -14 44 21 96 39 57 3 -7 5 -4 3 7 -3 23 -27 31 -45
13z"/>
<path d="M3317 3874 c-4 -4 -7 -14 -7 -22 0 -12 3 -12 15 -2 11 9 19 10 26 3
7 -7 2 -20 -15 -41 -35 -41 -34 -62 4 -62 17 0 30 5 30 10 0 6 -9 10 -20 10
-26 0 -25 12 0 35 27 24 23 69 -5 73 -12 2 -24 0 -28 -4z"/>
<path d="M3407 3853 c-28 -55 -30 -73 -9 -73 11 0 23 -6 25 -12 7 -18 29 12
22 30 -3 8 -5 29 -5 48 0 41 -14 44 -33 7z m13 -33 c0 -11 -4 -20 -9 -20 -5 0
-7 9 -4 20 3 11 7 20 9 20 2 0 4 -9 4 -20z"/>
<path d="M3474 3866 c-3 -7 -4 -35 -2 -62 3 -41 6 -49 23 -49 26 0 42 58 26
98 -11 29 -38 36 -47 13z m36 -51 c0 -33 -4 -45 -15 -45 -11 0 -15 11 -15 38
0 21 3 42 7 45 16 16 23 4 23 -38z"/>
<path d="M3548 3855 c-17 -37 0 -100 27 -100 18 0 20 7 20 60 0 49 -3 60 -17
63 -11 2 -22 -6 -30 -23z m37 -40 c0 -22 -5 -40 -12 -42 -9 -3 -13 9 -13 42 0
33 4 45 13 43 7 -3 12 -21 12 -43z"/>
<path d="M3630 3865 c-7 -8 -9 -19 -5 -23 4 -4 10 -1 12 6 6 16 33 16 33 -1 0
-8 -11 -24 -25 -37 -35 -33 -33 -60 5 -60 17 0 30 5 30 10 0 6 -9 10 -20 10
-26 0 -25 11 1 33 13 12 19 27 17 45 -3 31 -29 40 -48 17z"/>
<path d="M3700 3814 l0 -65 28 3 c25 3 27 7 28 48 1 55 -10 80 -36 80 -18 0
-20 -7 -20 -66z m40 31 c0 -8 -7 -15 -15 -15 -8 0 -15 7 -15 15 0 8 7 15 15
15 8 0 15 -7 15 -15z m5 -55 c0 -8 -8 -16 -17 -18 -13 -2 -18 3 -18 18 0 15 5
20 18 18 9 -2 17 -10 17 -18z"/>
<path d="M3782 3868 c-16 -16 -16 -90 0 -106 7 -7 22 -12 35 -12 20 0 23 5 23
35 0 28 -4 35 -20 35 -11 0 -20 -4 -20 -10 0 -5 7 -10 15 -10 19 0 19 -14 2
-29 -20 -16 -27 -4 -27 46 0 30 4 43 14 43 8 0 16 -6 19 -12 2 -7 7 -10 11 -7
3 3 4 14 0 23 -7 19 -35 21 -52 4z"/>
<path d="M3867 3873 c-4 -3 -7 -13 -7 -22 0 -12 3 -12 12 -3 35 35 38 -9 3
-50 -33 -39 -32 -48 10 -48 19 0 35 5 35 10 0 6 -12 10 -26 10 l-26 0 26 31
c14 17 26 36 26 43 0 25 -37 46 -53 29z"/>
<path d="M2470 3805 c-7 -9 -10 -18 -6 -22 3 -3 6 0 6 8 0 12 2 11 10 -1 9
-13 11 -13 20 0 6 9 10 10 10 3 0 -7 -8 -17 -17 -22 -10 -6 -13 -11 -7 -11 6
0 17 7 24 15 10 12 10 18 0 30 -16 19 -24 19 -40 0z"/>
<path d="M1813 3785 c-40 -17 -53 -42 -53 -99 0 -33 6 -52 24 -73 l24 -28 299
-3 c164 -2 308 0 321 3 45 11 62 40 62 104 0 33 -5 63 -10 66 -6 4 -7 12 -4
18 4 7 4 9 0 5 -4 -3 -23 0 -41 8 -49 20 -575 20 -622 -1z m92 -126 l60 -6
-67 -1 -68 -2 1 43 2 42 6 -35 c6 -35 7 -35 66 -41z m199 49 c19 -31 -4 -53
-62 -56 -43 -3 -52 0 -62 17 -8 15 -8 27 0 42 10 17 19 20 62 17 35 -2 54 -8
62 -20z m49 2 c4 -16 14 -20 51 -20 39 0 46 3 46 20 0 11 5 20 10 20 6 0 10
-18 10 -40 0 -22 -4 -40 -10 -40 -5 0 -10 7 -10 15 0 11 -12 15 -50 15 -38 0
-50 -4 -50 -15 0 -8 -4 -15 -9 -15 -6 0 -9 18 -9 40 0 42 12 54 21 20z m271
-2 c19 -31 -4 -53 -61 -56 -61 -4 -83 14 -64 54 10 23 16 25 62 22 36 -2 55
-8 63 -20z"/>
<path d="M1994 3705 c-12 -31 4 -45 50 -45 47 0 67 20 45 46 -16 19 -88 18
-95 -1z"/>
<path d="M2314 3705 c-12 -29 4 -45 44 -45 47 0 72 21 52 45 -7 9 -29 15 -52
15 -25 0 -41 -5 -44 -15z"/>
<path d="M1755 3535 c-22 -8 -48 -15 -57 -15 -22 0 -23 -16 -4 -52 8 -14 13
-46 12 -69 -1 -34 3 -44 17 -47 10 -2 17 3 17 13 0 13 6 15 28 11 40 -8 139
-16 125 -10 -18 8 -16 27 1 21 8 -3 22 4 33 16 18 22 18 22 -3 4 -11 -9 -24
-14 -27 -11 -4 4 -14 1 -23 -7 -16 -13 -17 -12 -12 8 7 27 -7 39 -27 23 -8 -7
-20 -10 -27 -7 -8 3 -2 10 15 17 24 12 38 40 19 40 -4 0 -9 14 -10 32 -2 28
-16 48 -32 47 -3 0 -23 -6 -45 -14z m21 -40 c-11 -8 -29 -15 -40 -15 -19 1
-19 2 4 15 35 20 62 19 36 0z m34 -35 c0 -5 -8 -10 -17 -10 -15 0 -16 2 -3 10
19 12 20 12 20 0z m-56 -49 c-2 -2 -10 4 -18 12 -12 11 -13 16 -3 20 11 4 29
-23 21 -32z"/>
<path d="M1987 3522 c-13 -14 -14 -21 -5 -30 8 -8 9 -12 1 -12 -12 0 -12 -18
0 -37 4 -6 4 -18 1 -27 -8 -21 12 -20 34 2 17 17 19 17 37 0 34 -33 50 -19 53
45 3 51 1 57 -17 57 -10 0 -22 6 -24 13 -4 9 -7 9 -14 0 -6 -8 -14 -9 -23 -3
-21 13 -25 13 -43 -8z m53 -42 c0 -5 -4 -10 -10 -10 -5 0 -10 5 -10 10 0 6 5
10 10 10 6 0 10 -4 10 -10z m27 -32 c-3 -8 -6 -5 -6 6 -1 11 2 17 5 13 3 -3 4
-12 1 -19z"/>
<path d="M2240 3533 c-22 -3 -26 -9 -26 -41 0 -20 -3 -44 -7 -52 -9 -20 36
-43 53 -26 8 8 15 6 25 -8 14 -18 15 -18 39 5 19 19 22 27 14 42 -5 11 -7 32
-4 48 4 23 2 29 -12 29 -9 0 -26 2 -37 4 -11 2 -31 2 -45 -1z"/>
<path d="M2470 3531 c0 -7 -5 -9 -10 -6 -6 3 -17 0 -25 -9 -11 -11 -13 -21 -5
-40 6 -17 6 -26 0 -26 -10 0 -8 -35 2 -46 4 -3 15 -1 24 4 14 8 21 6 31 -6 9
-12 12 -13 13 -4 0 10 8 12 30 7 19 -4 30 -3 30 4 0 6 -6 11 -12 11 -8 0 -9 3
-3 8 14 10 13 74 -2 90 -17 18 -73 28 -73 13z"/>
<path d="M1112 3457 c-7 -7 -19 -47 -27 -88 -35 -169 -48 -226 -61 -254 -6
-16 -31 -79 -54 -140 -24 -60 -61 -136 -84 -168 -23 -32 -55 -79 -71 -105 -59
-92 -94 -138 -139 -182 -25 -25 -46 -50 -46 -56 0 -6 -26 -33 -57 -60 -93 -79
-137 -127 -161 -172 -12 -23 -19 -42 -16 -42 4 0 2 -6 -4 -13 -6 -7 -14 -31
-17 -53 -6 -37 -4 -42 33 -78 22 -21 66 -53 98 -70 85 -45 145 -133 202 -296
24 -69 50 -161 58 -205 25 -138 53 -340 58 -427 17 -267 30 -382 48 -438 7
-19 13 -41 14 -48 20 -116 93 -249 186 -338 99 -96 230 -165 370 -195 172 -37
347 46 487 230 34 44 65 82 70 85 4 3 25 -20 44 -52 64 -101 141 -169 241
-215 41 -18 191 -26 251 -12 193 44 330 130 429 270 51 70 107 177 127 240 6
22 19 56 27 75 16 37 23 65 42 170 17 94 88 397 123 525 16 61 35 128 41 150
6 23 18 52 27 65 9 14 24 42 34 63 9 20 75 98 146 173 112 117 135 148 176
229 75 153 62 219 -57 282 -36 19 -77 45 -91 59 -14 13 -29 21 -33 17 -4 -5
-7 -3 -6 2 4 20 0 36 -9 31 -5 -3 -8 0 -8 7 2 13 -18 47 -141 235 -150 230
-220 404 -266 666 -8 48 -20 94 -27 102 -15 18 -47 18 -101 0 -24 -7 -97 -30
-163 -51 -66 -20 -127 -39 -135 -42 -8 -4 -18 -6 -21 -5 -4 1 -22 -3 -40 -9
-19 -6 -68 -19 -109 -29 -67 -16 -110 -30 -240 -75 -19 -7 -62 -21 -95 -31
-33 -10 -64 -21 -68 -25 -8 -6 -99 19 -152 42 -11 4 -40 14 -65 20 -25 7 -49
14 -55 15 -5 2 -41 12 -80 22 -71 19 -87 24 -140 47 -80 35 -116 49 -190 77
-214 79 -285 97 -303 75z m1030 -515 c79 -249 98 -323 113 -432 23 -163 45
-382 45 -436 0 -28 4 -54 9 -59 6 -6 11 -44 12 -85 3 -81 -24 -198 -62 -272
-11 -22 -18 -46 -15 -54 3 -8 2 -13 -2 -10 -5 3 -16 -21 -26 -52 -9 -31 -26
-79 -37 -105 -15 -36 -17 -52 -9 -62 8 -10 7 -13 -7 -11 -13 1 -23 -15 -38
-59 -11 -33 -25 -69 -31 -80 -6 -11 -17 -38 -24 -60 -7 -22 -17 -45 -21 -51
-5 -6 -6 -20 -2 -29 4 -12 3 -16 -4 -12 -6 4 -14 -1 -17 -11 -3 -9 -13 -28
-20 -41 -14 -24 -15 -23 -30 29 -9 30 -16 60 -16 67 0 8 -3 12 -7 10 -5 -3 -8
11 -9 31 0 20 -6 38 -12 40 -7 2 -10 8 -6 13 3 5 -6 55 -20 112 -105 425 -132
612 -102 705 8 26 29 126 45 222 52 299 60 336 97 457 35 120 135 383 144 383
3 0 26 -67 52 -148z m655 -4 c-3 -8 -6 -5 -6 6 -1 11 2 17 5 13 3 -3 4 -12 1
-19z m-204 -78 c3 -11 2 -18 -3 -15 -4 3 -10 14 -13 25 -3 11 -2 18 3 15 4 -3
10 -14 13 -25z m-432 -1577 c13 -16 12 -17 -3 -4 -10 7 -18 15 -18 17 0 8 8 3
21 -13z m-271 -107 c0 -2 -7 -7 -16 -10 -8 -3 -12 -2 -9 4 6 10 25 14 25 6z
m-270 -60 c0 -3 -4 -8 -10 -11 -5 -3 -10 -1 -10 4 0 6 5 11 10 11 6 0 10 -2
10 -4z m150 -6 c0 -5 -2 -10 -4 -10 -3 0 -8 5 -11 10 -3 6 -1 10 4 10 6 0 11
-4 11 -10z m50 -16 c0 -2 -9 -4 -20 -4 -11 0 -20 4 -20 9 0 5 9 7 20 4 11 -3
20 -7 20 -9z m-150 -14 c0 -5 -5 -10 -11 -10 -5 0 -7 5 -4 10 3 6 8 10 11 10
2 0 4 -4 4 -10z m140 -14 c0 -2 -7 -9 -15 -16 -12 -10 -15 -10 -15 4 0 9 7 16
15 16 8 0 15 -2 15 -4z m94 -11 c-4 -8 -10 -15 -15 -15 -4 0 -6 7 -3 15 4 8
10 15 15 15 4 0 6 -7 3 -15z m-224 -32 c-11 -17 -11 -17 -6 0 3 10 6 24 7 30
0 9 2 9 5 0 3 -7 0 -20 -6 -30z m485 7 c-3 -5 -10 -10 -16 -10 -5 0 -9 5 -9
10 0 6 7 10 16 10 8 0 12 -4 9 -10z m70 0 c3 -6 -1 -7 -9 -4 -18 7 -21 14 -7
14 6 0 13 -4 16 -10z m-719 -33 c25 9 15 -13 -11 -25 -14 -6 -25 -17 -26 -24
0 -7 -5 -2 -10 12 -7 17 -7 26 0 28 6 2 11 8 11 14 0 7 -4 7 -13 0 -8 -7 -18
-7 -27 -2 -8 6 -10 10 -5 11 25 2 47 8 53 14 4 4 8 -2 10 -13 2 -14 8 -19 18
-15z m51 11 c-3 -8 -6 -5 -6 6 -1 11 2 17 5 13 3 -3 4 -12 1 -19z m138 -9 c-5
-22 -3 -35 6 -41 11 -8 10 -9 -2 -5 -9 3 -22 0 -28 -6 -15 -15 -14 -5 5 43 19
48 28 52 19 9z m101 -5 c-5 -13 -9 -14 -20 -5 -11 9 -15 8 -20 -5 -4 -9 -9
-14 -12 -11 -3 3 0 15 7 28 11 22 12 22 25 4 13 -18 14 -18 15 6 0 13 3 18 6
11 3 -7 2 -20 -1 -28z m42 19 c-9 -10 -19 -28 -23 -41 -4 -13 -9 -22 -11 -19
-7 7 16 61 29 69 19 12 21 9 5 -9z m387 -13 c3 -6 -1 -7 -9 -4 -18 7 -21 14
-7 14 6 0 13 -4 16 -10z m-150 -10 c-3 -5 -12 -10 -18 -10 -7 0 -6 4 3 10 19
12 23 12 15 0z m32 -10 c-1 -12 -5 -16 -10 -11 -5 5 -6 14 -3 20 11 16 15 13
13 -9z m-697 -11 c0 -5 -4 -9 -10 -9 -5 0 -10 7 -10 16 0 8 5 12 10 9 6 -3 10
-10 10 -16z m23 -20 c-6 -6 -9 -1 -7 13 3 33 6 36 11 14 3 -10 1 -22 -4 -27z
m154 16 c-4 -8 -12 -15 -19 -14 -10 0 -10 2 0 6 6 2 12 12 12 21 0 8 3 13 6 9
4 -3 4 -13 1 -22z m60 -7 c-3 -7 -5 -2 -5 12 0 14 2 19 5 13 2 -7 2 -19 0 -25z
m313 22 c0 -5 -8 -10 -17 -10 -15 0 -16 2 -3 10 19 12 20 12 20 0z m-623 -32
c-3 -7 -5 -2 -5 12 0 14 2 19 5 13 2 -7 2 -19 0 -25z m863 -10 c0 -19 -16 -5
-17 14 -2 18 0 20 7 8 5 -8 10 -18 10 -22z m-479 -1 c-10 -9 -11 -8 -5 6 3 10
9 15 12 12 3 -3 0 -11 -7 -18z m49 9 c0 -3 -4 -8 -10 -11 -5 -3 -10 -1 -10 4
0 6 5 11 10 11 6 0 10 -2 10 -4z m55 -16 c3 -5 1 -10 -4 -10 -6 0 -11 5 -11
10 0 6 2 10 4 10 3 0 8 -4 11 -10z m138 -5 c-3 -9 -8 -14 -10 -11 -3 3 -2 9 2
15 9 16 15 13 8 -4z m-633 -4 c0 -6 -4 -13 -10 -16 -5 -3 -10 1 -10 9 0 9 5
16 10 16 6 0 10 -4 10 -9z m160 -5 c0 -11 -19 -15 -25 -6 -3 5 1 10 9 10 9 0
16 -2 16 -4z m677 -18 c-3 -8 -6 -5 -6 6 -1 11 2 17 5 13 3 -3 4 -12 1 -19z
m-187 -13 c0 -8 -4 -15 -10 -15 -5 0 -7 7 -4 15 4 8 8 15 10 15 2 0 4 -7 4
-15z m-923 -27 c-3 -8 -6 -5 -6 6 -1 11 2 17 5 13 3 -3 4 -12 1 -19z m30 0
c-3 -8 -6 -5 -6 6 -1 11 2 17 5 13 3 -3 4 -12 1 -19z m30 0 c-3 -8 -6 -5 -6 6
-1 11 2 17 5 13 3 -3 4 -12 1 -19z m673 2 c0 -5 -5 -10 -11 -10 -5 0 -7 5 -4
10 3 6 8 10 11 10 2 0 4 -4 4 -10z m200 -18 c0 -4 -11 -9 -26 -10 -14 -1 -23
2 -19 8 7 12 45 14 45 2z m17 -54 c-3 -8 -6 -5 -6 6 -1 11 2 17 5 13 3 -3 4
-12 1 -19z m-127 8 c0 -3 -4 -8 -10 -11 -5 -3 -10 -1 -10 4 0 6 5 11 10 11 6
0 10 -2 10 -4z m-330 -22 c0 -8 -5 -12 -10 -9 -6 4 -8 11 -5 16 9 14 15 11 15
-7z m27 -6 c-3 -8 -6 -5 -6 6 -1 11 2 17 5 13 3 -3 4 -12 1 -19z m-62 -21 c1
-21 -3 -26 -19 -23 -25 4 -34 26 -11 26 12 0 15 5 11 16 -4 10 -1 14 6 12 7
-3 13 -16 13 -31z m252 1 c-3 -7 -5 -2 -5 12 0 14 2 19 5 13 2 -7 2 -19 0 -25z
m413 18 c0 -3 -4 -8 -10 -11 -5 -3 -10 -1 -10 4 0 6 5 11 10 11 6 0 10 -2 10
-4z m-883 -38 c-3 -8 -6 -5 -6 6 -1 11 2 17 5 13 3 -3 4 -12 1 -19z m250 -25
c-3 -10 -5 -4 -5 12 0 17 2 24 5 18 2 -7 2 -21 0 -30z m613 -3 c0 -5 -2 -10
-4 -10 -3 0 -8 5 -11 10 -3 6 -1 10 4 10 6 0 11 -4 11 -10z m-150 -21 c0 -6
-4 -7 -10 -4 -5 3 -10 11 -10 16 0 6 5 7 10 4 6 -3 10 -11 10 -16z m-303 -51
c-3 -7 -5 -2 -5 12 0 14 2 19 5 13 2 -7 2 -19 0 -25z m68 22 c3 -5 1 -10 -4
-10 -6 0 -11 5 -11 10 0 6 2 10 4 10 3 0 8 -4 11 -10z m-360 -33 c49 10 73 9
68 -3 -6 -16 -80 -23 -95 -9 -8 7 -9 5 -5 -8 4 -11 3 -16 -4 -12 -6 4 -8 13
-5 21 3 8 1 14 -4 14 -6 0 -10 5 -10 12 0 7 6 5 18 -4 9 -9 26 -14 37 -11z
m-108 -41 c-12 -10 -23 -22 -23 -27 -1 -5 -2 -13 -3 -19 0 -5 -5 -10 -11 -10
-10 0 0 34 21 77 9 17 14 19 25 10 11 -10 9 -15 -9 -31z m205 18 c-7 -12 -11
-13 -17 -4 -4 7 -2 16 6 21 18 11 23 4 11 -17z m51 8 c3 8 6 6 6 -5 1 -10 5
-15 11 -12 6 4 7 -1 3 -12 -6 -15 -4 -16 9 -5 13 10 16 9 21 -7 3 -11 3 -22 0
-25 -11 -11 -77 44 -80 66 -3 22 -2 22 11 5 11 -14 15 -15 19 -5z m-211 -14
c-7 -7 -12 -8 -12 -2 0 14 12 26 19 19 2 -3 -1 -11 -7 -17z m408 -8 c0 -5 -2
-10 -4 -10 -3 0 -8 5 -11 10 -3 6 -1 10 4 10 6 0 11 -4 11 -10z m-430 -30 c-6
-11 -13 -20 -16 -20 -2 0 0 9 6 20 6 11 13 20 16 20 2 0 0 -9 -6 -20z m43 5
c-6 -17 17 -17 29 -1 12 17 37 14 43 -4 5 -15 11 -17 30 -10 12 5 26 6 31 2 4
-4 4 1 1 10 -4 12 -2 15 7 12 15 -6 10 -44 -6 -44 -5 0 -6 -4 -3 -10 3 -6 -1
-7 -9 -4 -9 3 -16 10 -16 15 0 5 -5 9 -11 9 -5 0 -7 -5 -3 -12 4 -6 3 -8 -4
-4 -6 3 -13 2 -17 -4 -4 -6 -11 -8 -16 -4 -5 3 -7 10 -4 15 4 5 3 9 -2 10 -4
0 -16 2 -25 4 -21 4 -23 -6 -5 -24 10 -11 10 -13 0 -7 -16 9 -17 -6 -2 -21 8
-8 8 -13 0 -18 -6 -3 -10 -2 -9 3 2 6 -1 9 -7 9 -5 -1 -9 -6 -7 -10 1 -5 -2
-6 -7 -3 -5 4 -12 0 -15 -6 -3 -7 -3 -2 1 12 5 23 5 24 -13 10 -18 -14 -18
-14 -5 2 7 10 17 16 21 13 5 -3 11 -1 15 5 3 5 0 10 -7 10 -10 0 -9 3 2 10 8
5 12 12 8 15 -3 3 -18 -6 -32 -20 -14 -14 -26 -23 -26 -18 0 6 61 72 67 73 1
0 0 -7 -4 -15z m991 -30 c-4 -8 -8 -15 -10 -15 -2 0 -4 7 -4 15 0 8 4 15 10
15 5 0 7 -7 4 -15z m-939 -54 c3 -5 2 -12 -3 -15 -5 -3 -9 1 -9 9 0 17 3 19
12 6z m-133 -25 c7 4 8 2 4 -5 -9 -13 -26 -5 -25 12 0 9 2 8 6 -1 2 -6 10 -9
15 -6z m118 -30 c0 -2 -6 -9 -14 -15 -11 -9 -16 -9 -22 0 -4 7 -3 9 4 5 6 -3
13 -2 17 4 6 10 15 14 15 6z m-60 -20 c0 -2 -8 -10 -17 -17 -16 -13 -17 -12
-4 4 13 16 21 21 21 13z m-93 -41 c0 -8 -4 -12 -9 -9 -5 3 -6 10 -3 15 9 13
12 11 12 -6z"/>
<path d="M1443 531 c0 -11 5 -18 9 -15 4 3 5 11 1 19 -7 21 -12 19 -10 -4z"/>
<path d="M2471 3374 c0 -11 3 -14 6 -6 3 7 2 16 -1 19 -3 4 -6 -2 -5 -13z"/>
<path d="M1960 3369 c0 -5 5 -7 10 -4 6 3 10 8 10 11 0 2 -4 4 -10 4 -5 0 -10
-5 -10 -11z"/>
<path d="M1990 3370 c0 -5 5 -10 10 -10 6 0 10 5 10 10 0 6 -4 10 -10 10 -5 0
-10 -4 -10 -10z"/>
<path d="M2025 3370 c4 -6 11 -8 16 -5 14 9 11 15 -7 15 -8 0 -12 -5 -9 -10z"/>
<path d="M2090 3370 c0 -5 5 -10 10 -10 6 0 10 5 10 10 0 6 -4 10 -10 10 -5 0
-10 -4 -10 -10z"/>
<path d="M2120 3370 c0 -5 5 -10 10 -10 6 0 10 5 10 10 0 6 -4 10 -10 10 -5 0
-10 -4 -10 -10z"/>
<path d="M2210 3370 c0 -5 5 -10 10 -10 6 0 10 5 10 10 0 6 -4 10 -10 10 -5 0
-10 -4 -10 -10z"/>
<path d="M2250 3370 c0 -5 5 -10 10 -10 6 0 10 5 10 10 0 6 -4 10 -10 10 -5 0
-10 -4 -10 -10z"/>
<path d="M2280 3370 c0 -5 5 -10 10 -10 6 0 10 5 10 10 0 6 -4 10 -10 10 -5 0
-10 -4 -10 -10z"/>
<path d="M2370 3370 c0 -5 5 -10 10 -10 6 0 10 5 10 10 0 6 -4 10 -10 10 -5 0
-10 -4 -10 -10z"/>
<path d="M2400 3370 c0 -5 5 -10 10 -10 6 0 10 5 10 10 0 6 -4 10 -10 10 -5 0
-10 -4 -10 -10z"/>
<path d="M2440 3370 c0 -5 5 -10 11 -10 5 0 7 5 4 10 -3 6 -8 10 -11 10 -2 0
-4 -4 -4 -10z"/>
<path d="M2495 3370 c-3 -5 -1 -10 4 -10 6 0 11 5 11 10 0 6 -2 10 -4 10 -3 0
-8 -4 -11 -10z"/>
<path d="M2530 3370 c0 -5 5 -10 10 -10 6 0 10 5 10 10 0 6 -4 10 -10 10 -5 0
-10 -4 -10 -10z"/>
<path d="M2560 3369 c0 -5 5 -7 10 -4 6 3 10 8 10 11 0 2 -4 4 -10 4 -5 0 -10
-5 -10 -11z"/>
</g>
</svg>
