<?xml version="1.0" encoding="iso-8859-1"?>
<!-- Generator: Adobe Illustrator 19.0.0, SVG Export Plug-In . SVG Version: 6.00 Build 0)  -->
<svg version="1.1" id="Layer_1" xmlns="http://www.w3.org/2000/svg" xmlns:xlink="http://www.w3.org/1999/xlink" x="0px" y="0px"
	 viewBox="0 0 512 512" style="enable-background:new 0 0 512 512;" xml:space="preserve">
<path style="fill:#FFE1BF;" d="M450.783,411.826c-6.345,0-12.466,1.336-18.475,3.896l-65.003-45.969v-91.492H212.147
	c1.223,8.682,2.337,16.584,3.338,23.93c7.681,55.542,9.683,70.456-9.906,117.203C187.104,463.583,219.715,512,267.13,512h183.652
	c27.603,0,50.087-22.483,50.087-50.087S478.386,411.826,450.783,411.826z"/>
<path style="fill:#FFCF99;" d="M450.783,411.826c-6.345,0-12.466,1.336-18.475,3.896l-65.003-45.969v-91.492h-77.913V512h161.391
	c27.603,0,50.087-22.483,50.087-50.087S478.386,411.826,450.783,411.826z"/>
<path style="fill:#FFE1BF;" d="M27.826,0C18.609,0,11.13,7.473,11.13,16.696v178.087c0,9.223,7.479,16.696,16.696,16.696h139.13V0
	H27.826z"/>
<path style="fill:#7F838C;" d="M289.391,18.588c-4.674-2.671-9.461-4.897-14.358-7.012c-24.71,14.47-41.294,41.294-41.294,71.903
	c0,36.285,23.264,67.228,55.652,78.581c8.682,3.228,18.031,4.897,27.826,4.897c18.809,0,36.174-6.233,50.087-16.807
	C367.304,93.607,335.804,44.188,289.391,18.588z"/>
<path style="fill:#757982;" d="M367.304,150.15c-13.913,10.574-31.278,16.807-50.087,16.807c-9.795,0-19.144-1.67-27.826-4.897
	V18.588C335.804,44.188,367.304,93.607,367.304,150.15z"/>
<path style="fill:#5C5F66;" d="M317.217,150.261c-7.729,0-15.134-1.296-22.009-3.851l-0.294-0.106
	c-26.604-9.326-44.479-34.574-44.479-62.826c0-27.28,17.021-52.519,43.344-62.372c-1.447-0.863-2.91-1.704-4.388-2.519
	c-4.674-2.671-9.461-4.897-14.358-7.012C257.224,4.118,237.525,0,217.043,0h-50.087v211.478h22.706c7.679,0,14.47,5.343,16.25,12.8
	c0.669,7.235,1.447,14.024,2.226,20.591c1.337,12.355,2.783,23.374,4.008,33.391h155.157V150.15c0-7.162-0.51-14.208-1.487-21.108
	C352.889,142.839,335.695,150.261,317.217,150.261z"/>
<g>
	<path style="fill:#53565C;" d="M293.779,21.107c-1.447-0.863-2.91-1.704-4.388-2.519v4.341
		C290.823,22.273,292.285,21.665,293.779,21.107z"/>
	<path style="fill:#53565C;" d="M317.217,150.261c-7.729,0-15.134-1.296-22.009-3.851l-0.294-0.106
		c-1.888-0.661-3.726-1.412-5.523-2.229v134.186h77.913V150.15c0-7.162-0.51-14.208-1.487-21.108
		C352.889,142.839,335.695,150.261,317.217,150.261z"/>
</g>
<g>
</g>
<g>
</g>
<g>
</g>
<g>
</g>
<g>
</g>
<g>
</g>
<g>
</g>
<g>
</g>
<g>
</g>
<g>
</g>
<g>
</g>
<g>
</g>
<g>
</g>
<g>
</g>
<g>
</g>
</svg>
