<svg height="512pt" viewBox="-77 0 512 512" width="512pt" xmlns="http://www.w3.org/2000/svg"><path d="m335.699219 82.671875v254.1875l-66.820313 68.699219-58.898437 60.5625-10.382813 10.679687c-21.488281 22.089844-50.289062 34.578125-81.097656 35.179688-.769531.007812-1.53125.019531-2.300781.019531-29.960938 0-58.328125-11.328125-80.101563-32.050781-.558594-.527344-1.109375-1.070313-1.660156-1.609375-21.839844-21.609375-34.046875-50.339844-34.4296875-81.160156-.3867185-31.601563 11.7031255-61.300782 34.0429685-83.640626l10.527344-10.527343 50.902344-50.890625v-169.449219zm0 0" fill="#ff3800"/><path d="m335.699219 82.671875v254.1875l-66.820313 68.699219-58.898437 60.5625-10.382813 10.679687c-21.488281 22.089844-50.289062 34.578125-81.097656 35.179688-.769531.007812-1.53125.019531-2.300781.019531-29.960938 0-58.328125-11.328125-80.101563-32.050781-.558594-.527344-1.109375-1.070313-1.660156-1.609375l180.171875-194.339844v-201.328125zm0 0" fill="#c2001b"/><path d="m70.578125 0h288.050781v112.671875h-288.050781zm0 0" fill="#e1e1e3"/><path d="m209.980469 466.121094-10.382813 10.679687c-21.488281 22.089844-50.289062 34.578125-81.097656 35.179688-.769531.007812-1.53125.019531-2.300781.019531-29.960938 0-58.328125-11.328125-80.101563-32.050781-.558594-.527344-1.109375-1.070313-1.660156-1.609375-21.839844-21.609375-34.046875-50.339844-34.4296875-81.160156-.3867185-31.601563 11.7031255-61.300782 34.0429685-83.640626l10.527344-10.527343 79.621094 78.507812zm0 0" fill="#e1e1e3"/><path d="m335.699219 228.101562v108.757813l-66.820313 68.699219c-20.339844-19.339844-31.980468-46.46875-31.980468-74.558594 0-55.390625 43.949218-100.699219 98.800781-102.898438zm0 0" fill="#009100"/><path d="m335.699219 164.238281v34.320313l-35.078125-19.488282-42.972656 23.949219-42.007813-23.917969-1.03125.570313-42.128906 23.328125-42.242188-23.890625-34.757812 19.480469v-34.398438l34.820312-19.5 42.339844 23.929688 41.96875-23.242188 1.230469-.679687 41.96875 23.890625 42.789062-23.851563zm0 0" fill="#e1e1e3"/><g fill="#d9d9db"><path d="m124.199219 381.519531 85.78125 84.601563-10.382813 10.679687c-21.488281 22.089844-50.289062 34.578125-81.097656 35.179688-.769531.007812-1.53125.019531-2.300781.019531-29.960938 0-58.328125-11.328125-80.101563-32.050781-.558594-.527344-1.109375-1.070313-1.660156-1.609375zm0 0"/><path d="m300.597656 144.738281 35.101563 19.5v34.320313l-35.078125-19.488282-42.972656 23.949219-42.007813-23.917969-1.03125.570313v-34.292969l1.230469-.679687 41.96875 23.890625zm0 0"/><path d="m358.628906 0v112.671875h-144.019531v-112.640625s.050781-.0117188.140625-.03125zm0 0"/></g></svg>